<mxfile host="app.diagrams.net" modified="2022-09-30T08:48:02.631Z" agent="5.0 (Windows NT 10.0; Win64; x64) AppleWebKit/537.36 (KHTML, like Gecko) Chrome/105.0.0.0 Safari/537.36" etag="pHjczf3s_W6UbeB7NmWw" version="20.3.7" type="github">
  <diagram id="wJFIlY55Ic1AygLS4aco" name="PBC">
    <mxGraphModel dx="1140" dy="632" grid="0" gridSize="10" guides="1" tooltips="1" connect="1" arrows="1" fold="1" page="1" pageScale="1" pageWidth="827" pageHeight="1169" background="none" math="0" shadow="0">
      <root>
        <mxCell id="0" />
        <mxCell id="1" parent="0" />
        <mxCell id="ktJitoXzX8yOROSHFtFX-9" value="" style="rounded=0;whiteSpace=wrap;html=1;strokeColor=#B09500;fillColor=#e3c800;fontColor=#000000;container=0;" parent="1" vertex="1">
          <mxGeometry x="49" y="39" width="254" height="419" as="geometry" />
        </mxCell>
        <mxCell id="ktJitoXzX8yOROSHFtFX-10" value="&lt;font style=&quot;font-size: 10px;&quot;&gt;PBC MicroService&lt;/font&gt;" style="text;html=1;strokeColor=none;fillColor=none;align=center;verticalAlign=middle;whiteSpace=wrap;rounded=0;container=0;" parent="1" vertex="1">
          <mxGeometry x="83.8901098901099" y="54" width="187.010989010989" height="30" as="geometry" />
        </mxCell>
        <mxCell id="ktJitoXzX8yOROSHFtFX-22" value="Process Budgeting Response" style="shape=umlLifeline;perimeter=lifelinePerimeter;whiteSpace=wrap;html=1;container=1;collapsible=0;recursiveResize=0;outlineConnect=0;fontSize=10;strokeColor=default;fillColor=#FFFFFF;rounded=0;" parent="1" vertex="1">
          <mxGeometry x="113" y="92" width="100" height="300" as="geometry" />
        </mxCell>
        <mxCell id="ktJitoXzX8yOROSHFtFX-32" value="" style="html=1;points=[];perimeter=orthogonalPerimeter;fontSize=10;strokeColor=default;fillColor=#FFFFFF;rounded=0;" parent="ktJitoXzX8yOROSHFtFX-22" vertex="1">
          <mxGeometry x="45" y="60" width="10" height="65" as="geometry" />
        </mxCell>
        <mxCell id="ktJitoXzX8yOROSHFtFX-33" value="Publish event with budgeting status payload" style="verticalAlign=bottom;endArrow=block;rounded=0;fontSize=10;labelBackgroundColor=none;fontColor=default;fontStyle=1;html=1;entryX=-0.16;entryY=0.234;entryDx=0;entryDy=0;entryPerimeter=0;" parent="ktJitoXzX8yOROSHFtFX-22" target="ktJitoXzX8yOROSHFtFX-35" edge="1">
          <mxGeometry width="80" relative="1" as="geometry">
            <mxPoint x="55" y="112" as="sourcePoint" />
            <mxPoint x="180" y="78" as="targetPoint" />
            <Array as="points">
              <mxPoint x="58" y="112" />
              <mxPoint x="193" y="112" />
            </Array>
          </mxGeometry>
        </mxCell>
        <mxCell id="ktJitoXzX8yOROSHFtFX-31" value="Domain Event Framework" style="shape=umlLifeline;perimeter=lifelinePerimeter;whiteSpace=wrap;html=1;container=1;collapsible=0;recursiveResize=0;outlineConnect=0;fontSize=10;strokeColor=default;fillColor=#FFFFFF;rounded=0;" parent="1" vertex="1">
          <mxGeometry x="387" y="94" width="111" height="309" as="geometry" />
        </mxCell>
        <mxCell id="ktJitoXzX8yOROSHFtFX-35" value="" style="html=1;points=[];perimeter=orthogonalPerimeter;fontSize=10;fontColor=default;strokeColor=default;fillColor=#FFFFFF;rounded=0;" parent="ktJitoXzX8yOROSHFtFX-31" vertex="1">
          <mxGeometry x="50.5" y="55" width="10" height="239" as="geometry" />
        </mxCell>
        <mxCell id="ktJitoXzX8yOROSHFtFX-1" value="" style="rounded=0;whiteSpace=wrap;html=1;fillColor=#1ba1e2;strokeColor=#006EAF;fontColor=#ffffff;container=0;" parent="1" vertex="1">
          <mxGeometry x="647" y="48" width="253.99999999999997" height="418" as="geometry" />
        </mxCell>
        <mxCell id="ktJitoXzX8yOROSHFtFX-27" value="au-pbc" style="shape=umlLifeline;perimeter=lifelinePerimeter;whiteSpace=wrap;html=1;container=0;collapsible=0;recursiveResize=0;outlineConnect=0;fontSize=10;strokeColor=default;fillColor=#FFFFFF;rounded=0;" parent="1" vertex="1">
          <mxGeometry x="707.7638709677419" y="98.5" width="81.93548387096773" height="300" as="geometry" />
        </mxCell>
        <mxCell id="ktJitoXzX8yOROSHFtFX-2" value="BizX" style="text;html=1;strokeColor=none;fillColor=none;align=center;verticalAlign=middle;whiteSpace=wrap;rounded=0;container=0;" parent="1" vertex="1">
          <mxGeometry x="752.8333333333333" y="63" width="38.48484848484849" height="34" as="geometry" />
        </mxCell>
        <mxCell id="1BRopTq9fd7QHmMv5jUN-4" value="" style="html=1;points=[];perimeter=orthogonalPerimeter;container=0;" vertex="1" parent="1">
          <mxGeometry x="744.6348387096774" y="170" width="8.193548387096774" height="211" as="geometry" />
        </mxCell>
        <mxCell id="1BRopTq9fd7QHmMv5jUN-5" value="" style="html=1;points=[];perimeter=orthogonalPerimeter;container=0;" vertex="1" parent="1">
          <mxGeometry x="748.9958064516129" y="293" width="8.193548387096774" height="40" as="geometry" />
        </mxCell>
        <mxCell id="1BRopTq9fd7QHmMv5jUN-6" value="fetch position from BizX&lt;br&gt;database and update" style="edgeStyle=orthogonalEdgeStyle;html=1;align=left;spacingLeft=2;endArrow=block;rounded=0;entryX=1;entryY=0;labelBackgroundColor=none;" edge="1" target="1BRopTq9fd7QHmMv5jUN-5" parent="1">
          <mxGeometry relative="1" as="geometry">
            <mxPoint x="753" y="273" as="sourcePoint" />
            <Array as="points">
              <mxPoint x="753" y="271" />
              <mxPoint x="774" y="271" />
              <mxPoint x="774" y="293" />
            </Array>
          </mxGeometry>
        </mxCell>
        <mxCell id="ktJitoXzX8yOROSHFtFX-34" value="polls for budgeting status event in regular intervals" style="html=1;verticalAlign=bottom;endArrow=open;dashed=1;endSize=8;rounded=0;labelBackgroundColor=none;fontSize=10;fontColor=default;fontStyle=1;entryX=1.21;entryY=0.1;entryDx=0;entryDy=0;entryPerimeter=0;" parent="1" edge="1" target="ktJitoXzX8yOROSHFtFX-35">
          <mxGeometry relative="1" as="geometry">
            <mxPoint x="745" y="171" as="sourcePoint" />
            <mxPoint x="441" y="173" as="targetPoint" />
            <Array as="points">
              <mxPoint x="642" y="173" />
              <mxPoint x="553" y="173" />
            </Array>
          </mxGeometry>
        </mxCell>
        <mxCell id="1BRopTq9fd7QHmMv5jUN-2" value="&lt;font style=&quot;&quot;&gt;&lt;span style=&quot;font-size: 10px;&quot;&gt;&lt;b&gt;subscribe&amp;nbsp;event for updating budgeting status&lt;/b&gt;&lt;/span&gt;&lt;/font&gt;" style="html=1;verticalAlign=bottom;endArrow=block;rounded=0;entryX=1;entryY=0.411;entryDx=0;entryDy=0;entryPerimeter=0;labelBackgroundColor=none;" edge="1" parent="1" target="ktJitoXzX8yOROSHFtFX-35">
          <mxGeometry width="80" relative="1" as="geometry">
            <mxPoint x="745" y="245" as="sourcePoint" />
            <mxPoint x="446" y="244" as="targetPoint" />
          </mxGeometry>
        </mxCell>
      </root>
    </mxGraphModel>
  </diagram>
</mxfile>
